%TF.GenerationSoftware,KiCad,Pcbnew,(6.0.7)*%
%TF.CreationDate,2022-11-01T17:15:19-06:00*%
%TF.ProjectId,BreadboarSchematic,42726561-6462-46f6-9172-536368656d61,rev?*%
%TF.SameCoordinates,Original*%
%TF.FileFunction,Soldermask,Top*%
%TF.FilePolarity,Negative*%
%FSLAX46Y46*%
G04 Gerber Fmt 4.6, Leading zero omitted, Abs format (unit mm)*
G04 Created by KiCad (PCBNEW (6.0.7)) date 2022-11-01 17:15:19*
%MOMM*%
%LPD*%
G01*
G04 APERTURE LIST*
G04 Aperture macros list*
%AMRoundRect*
0 Rectangle with rounded corners*
0 $1 Rounding radius*
0 $2 $3 $4 $5 $6 $7 $8 $9 X,Y pos of 4 corners*
0 Add a 4 corners polygon primitive as box body*
4,1,4,$2,$3,$4,$5,$6,$7,$8,$9,$2,$3,0*
0 Add four circle primitives for the rounded corners*
1,1,$1+$1,$2,$3*
1,1,$1+$1,$4,$5*
1,1,$1+$1,$6,$7*
1,1,$1+$1,$8,$9*
0 Add four rect primitives between the rounded corners*
20,1,$1+$1,$2,$3,$4,$5,0*
20,1,$1+$1,$4,$5,$6,$7,0*
20,1,$1+$1,$6,$7,$8,$9,0*
20,1,$1+$1,$8,$9,$2,$3,0*%
G04 Aperture macros list end*
%TA.AperFunction,Profile*%
%ADD10C,0.381000*%
%TD*%
%ADD11R,1.700000X1.700000*%
%ADD12O,1.700000X1.700000*%
%ADD13C,7.000000*%
%ADD14C,1.280000*%
%ADD15RoundRect,0.250000X-1.500000X-0.550000X1.500000X-0.550000X1.500000X0.550000X-1.500000X0.550000X0*%
%ADD16C,1.440000*%
%ADD17R,3.500000X1.200000*%
%ADD18RoundRect,0.250000X-0.312500X-0.625000X0.312500X-0.625000X0.312500X0.625000X-0.312500X0.625000X0*%
%ADD19RoundRect,0.250000X-0.625000X0.312500X-0.625000X-0.312500X0.625000X-0.312500X0.625000X0.312500X0*%
%ADD20RoundRect,0.150000X0.587500X0.150000X-0.587500X0.150000X-0.587500X-0.150000X0.587500X-0.150000X0*%
%ADD21R,1.905000X2.000000*%
%ADD22O,1.905000X2.000000*%
%ADD23R,1.600000X0.550000*%
%ADD24R,0.550000X1.600000*%
%ADD25RoundRect,0.166600X0.693400X-0.323400X0.693400X0.323400X-0.693400X0.323400X-0.693400X-0.323400X0*%
%ADD26RoundRect,0.250000X0.625000X-0.312500X0.625000X0.312500X-0.625000X0.312500X-0.625000X-0.312500X0*%
%ADD27RoundRect,0.250000X-0.325000X-0.650000X0.325000X-0.650000X0.325000X0.650000X-0.325000X0.650000X0*%
%ADD28R,1.635000X1.635000*%
%ADD29C,1.635000*%
%ADD30RoundRect,0.250000X0.312500X0.625000X-0.312500X0.625000X-0.312500X-0.625000X0.312500X-0.625000X0*%
%ADD31RoundRect,0.250000X0.325000X0.650000X-0.325000X0.650000X-0.325000X-0.650000X0.325000X-0.650000X0*%
%ADD32C,2.290000*%
%ADD33C,1.524000*%
G04 APERTURE END LIST*
D10*
X57150000Y-20955000D02*
X154940000Y-20955000D01*
X154940000Y-20955000D02*
X154940000Y-80010000D01*
X154940000Y-80010000D02*
X57150000Y-80010000D01*
X57150000Y-80010000D02*
X57150000Y-20955000D01*
D11*
%TO.C,J2*%
X117475000Y-43825000D03*
D12*
X117475000Y-46365000D03*
X117475000Y-48905000D03*
X117475000Y-51445000D03*
%TD*%
D13*
%TO.C,REF\u002A\u002A*%
X149860000Y-74930000D03*
%TD*%
D14*
%TO.C,LS1*%
X119420000Y-35560000D03*
X124420000Y-35560000D03*
%TD*%
D15*
%TO.C,C2*%
X106520000Y-63500000D03*
X111920000Y-63500000D03*
%TD*%
D16*
%TO.C,RV1*%
X147330000Y-64135000D03*
X144790000Y-64135000D03*
X142250000Y-64135000D03*
%TD*%
D17*
%TO.C,Y1*%
X124670000Y-59055000D03*
X119170000Y-59055000D03*
%TD*%
D18*
%TO.C,R1*%
X140777500Y-55880000D03*
X143702500Y-55880000D03*
%TD*%
D19*
%TO.C,R6*%
X131445000Y-59055000D03*
X131445000Y-61980000D03*
%TD*%
D11*
%TO.C,J1*%
X137160000Y-55880000D03*
D12*
X134620000Y-55880000D03*
X137160000Y-58420000D03*
X134620000Y-58420000D03*
X137160000Y-60960000D03*
X134620000Y-60960000D03*
X137160000Y-63500000D03*
X134620000Y-63500000D03*
X137160000Y-66040000D03*
X134620000Y-66040000D03*
%TD*%
D20*
%TO.C,Q1*%
X133017500Y-37780000D03*
X133017500Y-35880000D03*
X131142500Y-36830000D03*
%TD*%
D21*
%TO.C,U1*%
X106680000Y-35235000D03*
D22*
X109220000Y-35235000D03*
X111760000Y-35235000D03*
%TD*%
D23*
%TO.C,U2*%
X122750000Y-48000000D03*
X122750000Y-48800000D03*
X122750000Y-49600000D03*
X122750000Y-50400000D03*
X122750000Y-51200000D03*
X122750000Y-52000000D03*
X122750000Y-52800000D03*
X122750000Y-53600000D03*
D24*
X124200000Y-55050000D03*
X125000000Y-55050000D03*
X125800000Y-55050000D03*
X126600000Y-55050000D03*
X127400000Y-55050000D03*
X128200000Y-55050000D03*
X129000000Y-55050000D03*
X129800000Y-55050000D03*
D23*
X131250000Y-53600000D03*
X131250000Y-52800000D03*
X131250000Y-52000000D03*
X131250000Y-51200000D03*
X131250000Y-50400000D03*
X131250000Y-49600000D03*
X131250000Y-48800000D03*
X131250000Y-48000000D03*
D24*
X129800000Y-46550000D03*
X129000000Y-46550000D03*
X128200000Y-46550000D03*
X127400000Y-46550000D03*
X126600000Y-46550000D03*
X125800000Y-46550000D03*
X125000000Y-46550000D03*
X124200000Y-46550000D03*
%TD*%
D25*
%TO.C,D1*%
X131445000Y-66875000D03*
X131445000Y-63955000D03*
%TD*%
D26*
%TO.C,R5*%
X137795000Y-52262500D03*
X137795000Y-49337500D03*
%TD*%
D11*
%TO.C,J3*%
X142240000Y-41910000D03*
D12*
X144780000Y-41910000D03*
X142240000Y-44450000D03*
X144780000Y-44450000D03*
X142240000Y-46990000D03*
X144780000Y-46990000D03*
X142240000Y-49530000D03*
X144780000Y-49530000D03*
X142240000Y-52070000D03*
X144780000Y-52070000D03*
%TD*%
D27*
%TO.C,C3*%
X117905000Y-66040000D03*
X120855000Y-66040000D03*
%TD*%
D28*
%TO.C,SW1*%
X106680000Y-43180000D03*
D29*
X111760000Y-43180000D03*
%TD*%
D30*
%TO.C,R2*%
X139892500Y-33655000D03*
X136967500Y-33655000D03*
%TD*%
D26*
%TO.C,R4*%
X134620000Y-52262500D03*
X134620000Y-49337500D03*
%TD*%
D13*
%TO.C,REF\u002A\u002A*%
X149860000Y-26035000D03*
%TD*%
D31*
%TO.C,C4*%
X125935000Y-66040000D03*
X122985000Y-66040000D03*
%TD*%
D15*
%TO.C,C1*%
X106520000Y-53340000D03*
X111920000Y-53340000D03*
%TD*%
D13*
%TO.C,REF\u002A\u002A*%
X62230000Y-74930000D03*
%TD*%
D32*
%TO.C,BT1*%
X96985000Y-50935000D03*
X74635000Y-64425000D03*
X74635000Y-37455000D03*
D33*
X92075000Y-25855000D03*
X79375000Y-25855000D03*
%TD*%
D13*
%TO.C,REF\u002A\u002A*%
X62230000Y-26035000D03*
%TD*%
D30*
%TO.C,R3*%
X139892500Y-37465000D03*
X136967500Y-37465000D03*
%TD*%
M02*
