M48
; DRILL file {KiCad (6.0.7)} date Tue Nov  1 17:15:22 2022
; FORMAT={-:-/ absolute / inch / decimal}
; #@! TF.CreationDate,2022-11-01T17:15:22-06:00
; #@! TF.GenerationSoftware,Kicad,Pcbnew,(6.0.7)
; #@! TF.FileFunction,Plated,1,2,PTH
FMAT,2
INCH
; #@! TA.AperFunction,Plated,PTH,ViaDrill
T1C0.0157
; #@! TA.AperFunction,Plated,PTH,ComponentDrill
T2C0.0315
; #@! TA.AperFunction,Plated,PTH,ComponentDrill
T3C0.0335
; #@! TA.AperFunction,Plated,PTH,ComponentDrill
T4C0.0394
; #@! TA.AperFunction,Plated,PTH,ComponentDrill
T5C0.0400
; #@! TA.AperFunction,Plated,PTH,ComponentDrill
T6C0.0429
; #@! TA.AperFunction,Plated,PTH,ComponentDrill
T7C0.0433
; #@! TA.AperFunction,Plated,PTH,ComponentDrill
T8C0.1378
%
G90
G05
T1
X2.275Y-0.85
X4.425Y-2.2
X4.725Y-2.025
X4.8Y-2.6
X5.0Y-1.9
X5.1Y-1.975
X5.15Y-1.8
X5.2Y-2.15
X5.2Y-2.2
X5.225Y-2.6
X5.3Y-1.4
X5.5Y-1.9
X5.6Y-2.4
T2
X5.6004Y-2.525
X5.7004Y-2.525
X5.8004Y-2.525
T3
X4.7016Y-1.4
X4.8984Y-1.4
T4
X4.625Y-1.7254
X4.625Y-1.8254
X4.625Y-1.9254
X4.625Y-2.0254
X5.3Y-2.2
X5.3Y-2.3
X5.3Y-2.4
X5.3Y-2.5
X5.3Y-2.6
X5.4Y-2.2
X5.4Y-2.3
X5.4Y-2.4
X5.4Y-2.5
X5.4Y-2.6
X5.6Y-1.65
X5.6Y-1.75
X5.6Y-1.85
X5.6Y-1.95
X5.6Y-2.05
X5.7Y-1.65
X5.7Y-1.75
X5.7Y-1.85
X5.7Y-1.95
X5.7Y-2.05
T5
X3.125Y-1.0179
X3.625Y-1.0179
T6
X4.2Y-1.7
X4.4Y-1.7
T7
X4.2Y-1.3872
X4.3Y-1.3872
X4.4Y-1.3872
T8
X2.45Y-1.025
X2.45Y-2.95
X5.9Y-1.025
X5.9Y-2.95
T0
M30
