%TF.GenerationSoftware,KiCad,Pcbnew,(6.0.7)*%
%TF.CreationDate,2022-11-01T17:15:19-06:00*%
%TF.ProjectId,BreadboarSchematic,42726561-6462-46f6-9172-536368656d61,rev?*%
%TF.SameCoordinates,Original*%
%TF.FileFunction,Legend,Top*%
%TF.FilePolarity,Positive*%
%FSLAX46Y46*%
G04 Gerber Fmt 4.6, Leading zero omitted, Abs format (unit mm)*
G04 Created by KiCad (PCBNEW (6.0.7)) date 2022-11-01 17:15:19*
%MOMM*%
%LPD*%
G01*
G04 APERTURE LIST*
%TA.AperFunction,Profile*%
%ADD10C,0.381000*%
%TD*%
%ADD11C,0.150000*%
%ADD12C,0.120004*%
%ADD13C,0.254000*%
%ADD14C,0.120000*%
%ADD15C,0.127000*%
%ADD16C,0.100000*%
%ADD17C,0.200000*%
G04 APERTURE END LIST*
D10*
X57150000Y-20955000D02*
X154940000Y-20955000D01*
X154940000Y-20955000D02*
X154940000Y-80010000D01*
X154940000Y-80010000D02*
X57150000Y-80010000D01*
X57150000Y-80010000D02*
X57150000Y-20955000D01*
D11*
X63442380Y-60720714D02*
X62442380Y-60720714D01*
X62442380Y-60482619D01*
X62490000Y-60339761D01*
X62585238Y-60244523D01*
X62680476Y-60196904D01*
X62870952Y-60149285D01*
X63013809Y-60149285D01*
X63204285Y-60196904D01*
X63299523Y-60244523D01*
X63394761Y-60339761D01*
X63442380Y-60482619D01*
X63442380Y-60720714D01*
X63394761Y-59339761D02*
X63442380Y-59435000D01*
X63442380Y-59625476D01*
X63394761Y-59720714D01*
X63299523Y-59768333D01*
X62918571Y-59768333D01*
X62823333Y-59720714D01*
X62775714Y-59625476D01*
X62775714Y-59435000D01*
X62823333Y-59339761D01*
X62918571Y-59292142D01*
X63013809Y-59292142D01*
X63109047Y-59768333D01*
X63394761Y-58911190D02*
X63442380Y-58815952D01*
X63442380Y-58625476D01*
X63394761Y-58530238D01*
X63299523Y-58482619D01*
X63251904Y-58482619D01*
X63156666Y-58530238D01*
X63109047Y-58625476D01*
X63109047Y-58768333D01*
X63061428Y-58863571D01*
X62966190Y-58911190D01*
X62918571Y-58911190D01*
X62823333Y-58863571D01*
X62775714Y-58768333D01*
X62775714Y-58625476D01*
X62823333Y-58530238D01*
X63442380Y-58054047D02*
X62775714Y-58054047D01*
X62442380Y-58054047D02*
X62490000Y-58101666D01*
X62537619Y-58054047D01*
X62490000Y-58006428D01*
X62442380Y-58054047D01*
X62537619Y-58054047D01*
X62775714Y-57149285D02*
X63585238Y-57149285D01*
X63680476Y-57196904D01*
X63728095Y-57244523D01*
X63775714Y-57339761D01*
X63775714Y-57482619D01*
X63728095Y-57577857D01*
X63394761Y-57149285D02*
X63442380Y-57244523D01*
X63442380Y-57435000D01*
X63394761Y-57530238D01*
X63347142Y-57577857D01*
X63251904Y-57625476D01*
X62966190Y-57625476D01*
X62870952Y-57577857D01*
X62823333Y-57530238D01*
X62775714Y-57435000D01*
X62775714Y-57244523D01*
X62823333Y-57149285D01*
X62775714Y-56673095D02*
X63442380Y-56673095D01*
X62870952Y-56673095D02*
X62823333Y-56625476D01*
X62775714Y-56530238D01*
X62775714Y-56387380D01*
X62823333Y-56292142D01*
X62918571Y-56244523D01*
X63442380Y-56244523D01*
X63394761Y-55387380D02*
X63442380Y-55482619D01*
X63442380Y-55673095D01*
X63394761Y-55768333D01*
X63299523Y-55815952D01*
X62918571Y-55815952D01*
X62823333Y-55768333D01*
X62775714Y-55673095D01*
X62775714Y-55482619D01*
X62823333Y-55387380D01*
X62918571Y-55339761D01*
X63013809Y-55339761D01*
X63109047Y-55815952D01*
X63442380Y-54911190D02*
X62775714Y-54911190D01*
X62966190Y-54911190D02*
X62870952Y-54863571D01*
X62823333Y-54815952D01*
X62775714Y-54720714D01*
X62775714Y-54625476D01*
X63347142Y-53530238D02*
X63394761Y-53482619D01*
X63442380Y-53530238D01*
X63394761Y-53577857D01*
X63347142Y-53530238D01*
X63442380Y-53530238D01*
X62823333Y-53530238D02*
X62870952Y-53482619D01*
X62918571Y-53530238D01*
X62870952Y-53577857D01*
X62823333Y-53530238D01*
X62918571Y-53530238D01*
X63442380Y-52292142D02*
X62442380Y-52292142D01*
X63442380Y-51720714D01*
X62442380Y-51720714D01*
X62775714Y-50815952D02*
X63442380Y-50815952D01*
X62775714Y-51244523D02*
X63299523Y-51244523D01*
X63394761Y-51196904D01*
X63442380Y-51101666D01*
X63442380Y-50958809D01*
X63394761Y-50863571D01*
X63347142Y-50815952D01*
X63442380Y-50339761D02*
X62442380Y-50339761D01*
X62823333Y-50339761D02*
X62775714Y-50244523D01*
X62775714Y-50054047D01*
X62823333Y-49958809D01*
X62870952Y-49911190D01*
X62966190Y-49863571D01*
X63251904Y-49863571D01*
X63347142Y-49911190D01*
X63394761Y-49958809D01*
X63442380Y-50054047D01*
X63442380Y-50244523D01*
X63394761Y-50339761D01*
X63442380Y-49006428D02*
X62918571Y-49006428D01*
X62823333Y-49054047D01*
X62775714Y-49149285D01*
X62775714Y-49339761D01*
X62823333Y-49435000D01*
X63394761Y-49006428D02*
X63442380Y-49101666D01*
X63442380Y-49339761D01*
X63394761Y-49435000D01*
X63299523Y-49482619D01*
X63204285Y-49482619D01*
X63109047Y-49435000D01*
X63061428Y-49339761D01*
X63061428Y-49101666D01*
X63013809Y-49006428D01*
X63442380Y-48387380D02*
X63394761Y-48482619D01*
X63299523Y-48530238D01*
X62442380Y-48530238D01*
X63442380Y-47244523D02*
X62442380Y-47244523D01*
X63156666Y-46911190D01*
X62442380Y-46577857D01*
X63442380Y-46577857D01*
X63442380Y-45673095D02*
X62918571Y-45673095D01*
X62823333Y-45720714D01*
X62775714Y-45815952D01*
X62775714Y-46006428D01*
X62823333Y-46101666D01*
X63394761Y-45673095D02*
X63442380Y-45768333D01*
X63442380Y-46006428D01*
X63394761Y-46101666D01*
X63299523Y-46149285D01*
X63204285Y-46149285D01*
X63109047Y-46101666D01*
X63061428Y-46006428D01*
X63061428Y-45768333D01*
X63013809Y-45673095D01*
X62775714Y-45196904D02*
X63442380Y-45196904D01*
X62870952Y-45196904D02*
X62823333Y-45149285D01*
X62775714Y-45054047D01*
X62775714Y-44911190D01*
X62823333Y-44815952D01*
X62918571Y-44768333D01*
X63442380Y-44768333D01*
X63442380Y-44292142D02*
X62442380Y-44292142D01*
X63442380Y-43863571D02*
X62918571Y-43863571D01*
X62823333Y-43911190D01*
X62775714Y-44006428D01*
X62775714Y-44149285D01*
X62823333Y-44244523D01*
X62870952Y-44292142D01*
X63442380Y-42958809D02*
X62918571Y-42958809D01*
X62823333Y-43006428D01*
X62775714Y-43101666D01*
X62775714Y-43292142D01*
X62823333Y-43387380D01*
X63394761Y-42958809D02*
X63442380Y-43054047D01*
X63442380Y-43292142D01*
X63394761Y-43387380D01*
X63299523Y-43435000D01*
X63204285Y-43435000D01*
X63109047Y-43387380D01*
X63061428Y-43292142D01*
X63061428Y-43054047D01*
X63013809Y-42958809D01*
X63394761Y-42530238D02*
X63442380Y-42435000D01*
X63442380Y-42244523D01*
X63394761Y-42149285D01*
X63299523Y-42101666D01*
X63251904Y-42101666D01*
X63156666Y-42149285D01*
X63109047Y-42244523D01*
X63109047Y-42387380D01*
X63061428Y-42482619D01*
X62966190Y-42530238D01*
X62918571Y-42530238D01*
X62823333Y-42482619D01*
X62775714Y-42387380D01*
X62775714Y-42244523D01*
X62823333Y-42149285D01*
X64052380Y-62196904D02*
X64052380Y-61625476D01*
X65052380Y-61911190D02*
X64052380Y-61911190D01*
X65052380Y-61292142D02*
X64385714Y-61292142D01*
X64052380Y-61292142D02*
X64100000Y-61339761D01*
X64147619Y-61292142D01*
X64100000Y-61244523D01*
X64052380Y-61292142D01*
X64147619Y-61292142D01*
X64385714Y-60958809D02*
X64385714Y-60577857D01*
X64052380Y-60815952D02*
X64909523Y-60815952D01*
X65004761Y-60768333D01*
X65052380Y-60673095D01*
X65052380Y-60577857D01*
X65052380Y-60101666D02*
X65004761Y-60196904D01*
X64909523Y-60244523D01*
X64052380Y-60244523D01*
X65004761Y-59339761D02*
X65052380Y-59435000D01*
X65052380Y-59625476D01*
X65004761Y-59720714D01*
X64909523Y-59768333D01*
X64528571Y-59768333D01*
X64433333Y-59720714D01*
X64385714Y-59625476D01*
X64385714Y-59435000D01*
X64433333Y-59339761D01*
X64528571Y-59292142D01*
X64623809Y-59292142D01*
X64719047Y-59768333D01*
X64957142Y-58101666D02*
X65004761Y-58054047D01*
X65052380Y-58101666D01*
X65004761Y-58149285D01*
X64957142Y-58101666D01*
X65052380Y-58101666D01*
X64433333Y-58101666D02*
X64480952Y-58054047D01*
X64528571Y-58101666D01*
X64480952Y-58149285D01*
X64433333Y-58101666D01*
X64528571Y-58101666D01*
X64100000Y-56339761D02*
X64052380Y-56435000D01*
X64052380Y-56577857D01*
X64100000Y-56720714D01*
X64195238Y-56815952D01*
X64290476Y-56863571D01*
X64480952Y-56911190D01*
X64623809Y-56911190D01*
X64814285Y-56863571D01*
X64909523Y-56815952D01*
X65004761Y-56720714D01*
X65052380Y-56577857D01*
X65052380Y-56482619D01*
X65004761Y-56339761D01*
X64957142Y-56292142D01*
X64623809Y-56292142D01*
X64623809Y-56482619D01*
X65052380Y-55435000D02*
X64528571Y-55435000D01*
X64433333Y-55482619D01*
X64385714Y-55577857D01*
X64385714Y-55768333D01*
X64433333Y-55863571D01*
X65004761Y-55435000D02*
X65052380Y-55530238D01*
X65052380Y-55768333D01*
X65004761Y-55863571D01*
X64909523Y-55911190D01*
X64814285Y-55911190D01*
X64719047Y-55863571D01*
X64671428Y-55768333D01*
X64671428Y-55530238D01*
X64623809Y-55435000D01*
X65004761Y-55006428D02*
X65052380Y-54911190D01*
X65052380Y-54720714D01*
X65004761Y-54625476D01*
X64909523Y-54577857D01*
X64861904Y-54577857D01*
X64766666Y-54625476D01*
X64719047Y-54720714D01*
X64719047Y-54863571D01*
X64671428Y-54958809D01*
X64576190Y-55006428D01*
X64528571Y-55006428D01*
X64433333Y-54958809D01*
X64385714Y-54863571D01*
X64385714Y-54720714D01*
X64433333Y-54625476D01*
X65052380Y-52911190D02*
X65052380Y-53387380D01*
X64052380Y-53387380D01*
X65004761Y-52196904D02*
X65052380Y-52292142D01*
X65052380Y-52482619D01*
X65004761Y-52577857D01*
X64909523Y-52625476D01*
X64528571Y-52625476D01*
X64433333Y-52577857D01*
X64385714Y-52482619D01*
X64385714Y-52292142D01*
X64433333Y-52196904D01*
X64528571Y-52149285D01*
X64623809Y-52149285D01*
X64719047Y-52625476D01*
X65052380Y-51292142D02*
X64528571Y-51292142D01*
X64433333Y-51339761D01*
X64385714Y-51435000D01*
X64385714Y-51625476D01*
X64433333Y-51720714D01*
X65004761Y-51292142D02*
X65052380Y-51387380D01*
X65052380Y-51625476D01*
X65004761Y-51720714D01*
X64909523Y-51768333D01*
X64814285Y-51768333D01*
X64719047Y-51720714D01*
X64671428Y-51625476D01*
X64671428Y-51387380D01*
X64623809Y-51292142D01*
X65052380Y-50815952D02*
X64052380Y-50815952D01*
X64671428Y-50720714D02*
X65052380Y-50435000D01*
X64385714Y-50435000D02*
X64766666Y-50815952D01*
X65052380Y-49577857D02*
X64528571Y-49577857D01*
X64433333Y-49625476D01*
X64385714Y-49720714D01*
X64385714Y-49911190D01*
X64433333Y-50006428D01*
X65004761Y-49577857D02*
X65052380Y-49673095D01*
X65052380Y-49911190D01*
X65004761Y-50006428D01*
X64909523Y-50054047D01*
X64814285Y-50054047D01*
X64719047Y-50006428D01*
X64671428Y-49911190D01*
X64671428Y-49673095D01*
X64623809Y-49577857D01*
X64385714Y-48673095D02*
X65195238Y-48673095D01*
X65290476Y-48720714D01*
X65338095Y-48768333D01*
X65385714Y-48863571D01*
X65385714Y-49006428D01*
X65338095Y-49101666D01*
X65004761Y-48673095D02*
X65052380Y-48768333D01*
X65052380Y-48958809D01*
X65004761Y-49054047D01*
X64957142Y-49101666D01*
X64861904Y-49149285D01*
X64576190Y-49149285D01*
X64480952Y-49101666D01*
X64433333Y-49054047D01*
X64385714Y-48958809D01*
X64385714Y-48768333D01*
X64433333Y-48673095D01*
X65004761Y-47815952D02*
X65052380Y-47911190D01*
X65052380Y-48101666D01*
X65004761Y-48196904D01*
X64909523Y-48244523D01*
X64528571Y-48244523D01*
X64433333Y-48196904D01*
X64385714Y-48101666D01*
X64385714Y-47911190D01*
X64433333Y-47815952D01*
X64528571Y-47768333D01*
X64623809Y-47768333D01*
X64719047Y-48244523D01*
X65052380Y-46577857D02*
X64052380Y-46577857D01*
X64052380Y-46339761D01*
X64100000Y-46196904D01*
X64195238Y-46101666D01*
X64290476Y-46054047D01*
X64480952Y-46006428D01*
X64623809Y-46006428D01*
X64814285Y-46054047D01*
X64909523Y-46101666D01*
X65004761Y-46196904D01*
X65052380Y-46339761D01*
X65052380Y-46577857D01*
X65004761Y-45196904D02*
X65052380Y-45292142D01*
X65052380Y-45482619D01*
X65004761Y-45577857D01*
X64909523Y-45625476D01*
X64528571Y-45625476D01*
X64433333Y-45577857D01*
X64385714Y-45482619D01*
X64385714Y-45292142D01*
X64433333Y-45196904D01*
X64528571Y-45149285D01*
X64623809Y-45149285D01*
X64719047Y-45625476D01*
X64385714Y-44863571D02*
X64385714Y-44482619D01*
X64052380Y-44720714D02*
X64909523Y-44720714D01*
X65004761Y-44673095D01*
X65052380Y-44577857D01*
X65052380Y-44482619D01*
X65004761Y-43768333D02*
X65052380Y-43863571D01*
X65052380Y-44054047D01*
X65004761Y-44149285D01*
X64909523Y-44196904D01*
X64528571Y-44196904D01*
X64433333Y-44149285D01*
X64385714Y-44054047D01*
X64385714Y-43863571D01*
X64433333Y-43768333D01*
X64528571Y-43720714D01*
X64623809Y-43720714D01*
X64719047Y-44196904D01*
X65004761Y-42863571D02*
X65052380Y-42958809D01*
X65052380Y-43149285D01*
X65004761Y-43244523D01*
X64957142Y-43292142D01*
X64861904Y-43339761D01*
X64576190Y-43339761D01*
X64480952Y-43292142D01*
X64433333Y-43244523D01*
X64385714Y-43149285D01*
X64385714Y-42958809D01*
X64433333Y-42863571D01*
X64385714Y-42577857D02*
X64385714Y-42196904D01*
X64052380Y-42435000D02*
X64909523Y-42435000D01*
X65004761Y-42387380D01*
X65052380Y-42292142D01*
X65052380Y-42196904D01*
X65052380Y-41720714D02*
X65004761Y-41815952D01*
X64957142Y-41863571D01*
X64861904Y-41911190D01*
X64576190Y-41911190D01*
X64480952Y-41863571D01*
X64433333Y-41815952D01*
X64385714Y-41720714D01*
X64385714Y-41577857D01*
X64433333Y-41482619D01*
X64480952Y-41435000D01*
X64576190Y-41387380D01*
X64861904Y-41387380D01*
X64957142Y-41435000D01*
X65004761Y-41482619D01*
X65052380Y-41577857D01*
X65052380Y-41720714D01*
X65052380Y-40958809D02*
X64385714Y-40958809D01*
X64576190Y-40958809D02*
X64480952Y-40911190D01*
X64433333Y-40863571D01*
X64385714Y-40768333D01*
X64385714Y-40673095D01*
X66662380Y-58911190D02*
X65662380Y-58911190D01*
X65662380Y-58673095D01*
X65710000Y-58530238D01*
X65805238Y-58435000D01*
X65900476Y-58387380D01*
X66090952Y-58339761D01*
X66233809Y-58339761D01*
X66424285Y-58387380D01*
X66519523Y-58435000D01*
X66614761Y-58530238D01*
X66662380Y-58673095D01*
X66662380Y-58911190D01*
X66662380Y-57482619D02*
X66138571Y-57482619D01*
X66043333Y-57530238D01*
X65995714Y-57625476D01*
X65995714Y-57815952D01*
X66043333Y-57911190D01*
X66614761Y-57482619D02*
X66662380Y-57577857D01*
X66662380Y-57815952D01*
X66614761Y-57911190D01*
X66519523Y-57958809D01*
X66424285Y-57958809D01*
X66329047Y-57911190D01*
X66281428Y-57815952D01*
X66281428Y-57577857D01*
X66233809Y-57482619D01*
X65995714Y-57149285D02*
X65995714Y-56768333D01*
X65662380Y-57006428D02*
X66519523Y-57006428D01*
X66614761Y-56958809D01*
X66662380Y-56863571D01*
X66662380Y-56768333D01*
X66614761Y-56054047D02*
X66662380Y-56149285D01*
X66662380Y-56339761D01*
X66614761Y-56435000D01*
X66519523Y-56482619D01*
X66138571Y-56482619D01*
X66043333Y-56435000D01*
X65995714Y-56339761D01*
X65995714Y-56149285D01*
X66043333Y-56054047D01*
X66138571Y-56006428D01*
X66233809Y-56006428D01*
X66329047Y-56482619D01*
X66567142Y-54815952D02*
X66614761Y-54768333D01*
X66662380Y-54815952D01*
X66614761Y-54863571D01*
X66567142Y-54815952D01*
X66662380Y-54815952D01*
X66043333Y-54815952D02*
X66090952Y-54768333D01*
X66138571Y-54815952D01*
X66090952Y-54863571D01*
X66043333Y-54815952D01*
X66138571Y-54815952D01*
X65757619Y-53625476D02*
X65710000Y-53577857D01*
X65662380Y-53482619D01*
X65662380Y-53244523D01*
X65710000Y-53149285D01*
X65757619Y-53101666D01*
X65852857Y-53054047D01*
X65948095Y-53054047D01*
X66090952Y-53101666D01*
X66662380Y-53673095D01*
X66662380Y-53054047D01*
X65662380Y-52435000D02*
X65662380Y-52339761D01*
X65710000Y-52244523D01*
X65757619Y-52196904D01*
X65852857Y-52149285D01*
X66043333Y-52101666D01*
X66281428Y-52101666D01*
X66471904Y-52149285D01*
X66567142Y-52196904D01*
X66614761Y-52244523D01*
X66662380Y-52339761D01*
X66662380Y-52435000D01*
X66614761Y-52530238D01*
X66567142Y-52577857D01*
X66471904Y-52625476D01*
X66281428Y-52673095D01*
X66043333Y-52673095D01*
X65852857Y-52625476D01*
X65757619Y-52577857D01*
X65710000Y-52530238D01*
X65662380Y-52435000D01*
X65757619Y-51720714D02*
X65710000Y-51673095D01*
X65662380Y-51577857D01*
X65662380Y-51339761D01*
X65710000Y-51244523D01*
X65757619Y-51196904D01*
X65852857Y-51149285D01*
X65948095Y-51149285D01*
X66090952Y-51196904D01*
X66662380Y-51768333D01*
X66662380Y-51149285D01*
X65757619Y-50768333D02*
X65710000Y-50720714D01*
X65662380Y-50625476D01*
X65662380Y-50387380D01*
X65710000Y-50292142D01*
X65757619Y-50244523D01*
X65852857Y-50196904D01*
X65948095Y-50196904D01*
X66090952Y-50244523D01*
X66662380Y-50815952D01*
X66662380Y-50196904D01*
X66281428Y-49768333D02*
X66281428Y-49006428D01*
X66662380Y-48006428D02*
X66662380Y-48577857D01*
X66662380Y-48292142D02*
X65662380Y-48292142D01*
X65805238Y-48387380D01*
X65900476Y-48482619D01*
X65948095Y-48577857D01*
X65662380Y-47387380D02*
X65662380Y-47292142D01*
X65710000Y-47196904D01*
X65757619Y-47149285D01*
X65852857Y-47101666D01*
X66043333Y-47054047D01*
X66281428Y-47054047D01*
X66471904Y-47101666D01*
X66567142Y-47149285D01*
X66614761Y-47196904D01*
X66662380Y-47292142D01*
X66662380Y-47387380D01*
X66614761Y-47482619D01*
X66567142Y-47530238D01*
X66471904Y-47577857D01*
X66281428Y-47625476D01*
X66043333Y-47625476D01*
X65852857Y-47577857D01*
X65757619Y-47530238D01*
X65710000Y-47482619D01*
X65662380Y-47387380D01*
X66281428Y-46625476D02*
X66281428Y-45863571D01*
X66662380Y-44863571D02*
X66662380Y-45435000D01*
X66662380Y-45149285D02*
X65662380Y-45149285D01*
X65805238Y-45244523D01*
X65900476Y-45339761D01*
X65948095Y-45435000D01*
X66090952Y-44292142D02*
X66043333Y-44387380D01*
X65995714Y-44435000D01*
X65900476Y-44482619D01*
X65852857Y-44482619D01*
X65757619Y-44435000D01*
X65710000Y-44387380D01*
X65662380Y-44292142D01*
X65662380Y-44101666D01*
X65710000Y-44006428D01*
X65757619Y-43958809D01*
X65852857Y-43911190D01*
X65900476Y-43911190D01*
X65995714Y-43958809D01*
X66043333Y-44006428D01*
X66090952Y-44101666D01*
X66090952Y-44292142D01*
X66138571Y-44387380D01*
X66186190Y-44435000D01*
X66281428Y-44482619D01*
X66471904Y-44482619D01*
X66567142Y-44435000D01*
X66614761Y-44387380D01*
X66662380Y-44292142D01*
X66662380Y-44101666D01*
X66614761Y-44006428D01*
X66567142Y-43958809D01*
X66471904Y-43911190D01*
X66281428Y-43911190D01*
X66186190Y-43958809D01*
X66138571Y-44006428D01*
X66090952Y-44101666D01*
X68272380Y-54125476D02*
X67796190Y-54458809D01*
X68272380Y-54696904D02*
X67272380Y-54696904D01*
X67272380Y-54315952D01*
X67320000Y-54220714D01*
X67367619Y-54173095D01*
X67462857Y-54125476D01*
X67605714Y-54125476D01*
X67700952Y-54173095D01*
X67748571Y-54220714D01*
X67796190Y-54315952D01*
X67796190Y-54696904D01*
X68224761Y-53315952D02*
X68272380Y-53411190D01*
X68272380Y-53601666D01*
X68224761Y-53696904D01*
X68129523Y-53744523D01*
X67748571Y-53744523D01*
X67653333Y-53696904D01*
X67605714Y-53601666D01*
X67605714Y-53411190D01*
X67653333Y-53315952D01*
X67748571Y-53268333D01*
X67843809Y-53268333D01*
X67939047Y-53744523D01*
X67605714Y-52935000D02*
X68272380Y-52696904D01*
X67605714Y-52458809D01*
X68177142Y-51315952D02*
X68224761Y-51268333D01*
X68272380Y-51315952D01*
X68224761Y-51363571D01*
X68177142Y-51315952D01*
X68272380Y-51315952D01*
X67653333Y-51315952D02*
X67700952Y-51268333D01*
X67748571Y-51315952D01*
X67700952Y-51363571D01*
X67653333Y-51315952D01*
X67748571Y-51315952D01*
X68272380Y-49554047D02*
X68272380Y-50125476D01*
X68272380Y-49839761D02*
X67272380Y-49839761D01*
X67415238Y-49935000D01*
X67510476Y-50030238D01*
X67558095Y-50125476D01*
X68177142Y-49125476D02*
X68224761Y-49077857D01*
X68272380Y-49125476D01*
X68224761Y-49173095D01*
X68177142Y-49125476D01*
X68272380Y-49125476D01*
X67272380Y-48458809D02*
X67272380Y-48363571D01*
X67320000Y-48268333D01*
X67367619Y-48220714D01*
X67462857Y-48173095D01*
X67653333Y-48125476D01*
X67891428Y-48125476D01*
X68081904Y-48173095D01*
X68177142Y-48220714D01*
X68224761Y-48268333D01*
X68272380Y-48363571D01*
X68272380Y-48458809D01*
X68224761Y-48554047D01*
X68177142Y-48601666D01*
X68081904Y-48649285D01*
X67891428Y-48696904D01*
X67653333Y-48696904D01*
X67462857Y-48649285D01*
X67367619Y-48601666D01*
X67320000Y-48554047D01*
X67272380Y-48458809D01*
%TO.C,J2*%
X117141666Y-40947380D02*
X117141666Y-41661666D01*
X117094047Y-41804523D01*
X116998809Y-41899761D01*
X116855952Y-41947380D01*
X116760714Y-41947380D01*
X117570238Y-41042619D02*
X117617857Y-40995000D01*
X117713095Y-40947380D01*
X117951190Y-40947380D01*
X118046428Y-40995000D01*
X118094047Y-41042619D01*
X118141666Y-41137857D01*
X118141666Y-41233095D01*
X118094047Y-41375952D01*
X117522619Y-41947380D01*
X118141666Y-41947380D01*
%TO.C,LS1*%
X121020000Y-33653333D02*
X120353333Y-33653333D01*
X120353333Y-32253333D01*
X121420000Y-33586666D02*
X121620000Y-33653333D01*
X121953333Y-33653333D01*
X122086666Y-33586666D01*
X122153333Y-33520000D01*
X122220000Y-33386666D01*
X122220000Y-33253333D01*
X122153333Y-33120000D01*
X122086666Y-33053333D01*
X121953333Y-32986666D01*
X121686666Y-32920000D01*
X121553333Y-32853333D01*
X121486666Y-32786666D01*
X121420000Y-32653333D01*
X121420000Y-32520000D01*
X121486666Y-32386666D01*
X121553333Y-32320000D01*
X121686666Y-32253333D01*
X122020000Y-32253333D01*
X122220000Y-32320000D01*
X123553333Y-33653333D02*
X122753333Y-33653333D01*
X123153333Y-33653333D02*
X123153333Y-32253333D01*
X123020000Y-32453333D01*
X122886666Y-32586666D01*
X122753333Y-32653333D01*
%TO.C,C2*%
X109053333Y-59507142D02*
X109005714Y-59554761D01*
X108862857Y-59602380D01*
X108767619Y-59602380D01*
X108624761Y-59554761D01*
X108529523Y-59459523D01*
X108481904Y-59364285D01*
X108434285Y-59173809D01*
X108434285Y-59030952D01*
X108481904Y-58840476D01*
X108529523Y-58745238D01*
X108624761Y-58650000D01*
X108767619Y-58602380D01*
X108862857Y-58602380D01*
X109005714Y-58650000D01*
X109053333Y-58697619D01*
X109434285Y-58697619D02*
X109481904Y-58650000D01*
X109577142Y-58602380D01*
X109815238Y-58602380D01*
X109910476Y-58650000D01*
X109958095Y-58697619D01*
X110005714Y-58792857D01*
X110005714Y-58888095D01*
X109958095Y-59030952D01*
X109386666Y-59602380D01*
X110005714Y-59602380D01*
%TO.C,RV1*%
X144194761Y-68397380D02*
X143861428Y-67921190D01*
X143623333Y-68397380D02*
X143623333Y-67397380D01*
X144004285Y-67397380D01*
X144099523Y-67445000D01*
X144147142Y-67492619D01*
X144194761Y-67587857D01*
X144194761Y-67730714D01*
X144147142Y-67825952D01*
X144099523Y-67873571D01*
X144004285Y-67921190D01*
X143623333Y-67921190D01*
X144480476Y-67397380D02*
X144813809Y-68397380D01*
X145147142Y-67397380D01*
X146004285Y-68397380D02*
X145432857Y-68397380D01*
X145718571Y-68397380D02*
X145718571Y-67397380D01*
X145623333Y-67540238D01*
X145528095Y-67635476D01*
X145432857Y-67683095D01*
%TO.C,Y1*%
X121443809Y-62231190D02*
X121443809Y-62707380D01*
X121110476Y-61707380D02*
X121443809Y-62231190D01*
X121777142Y-61707380D01*
X122634285Y-62707380D02*
X122062857Y-62707380D01*
X122348571Y-62707380D02*
X122348571Y-61707380D01*
X122253333Y-61850238D01*
X122158095Y-61945476D01*
X122062857Y-61993095D01*
%TO.C,R1*%
X142073333Y-58237380D02*
X141740000Y-57761190D01*
X141501904Y-58237380D02*
X141501904Y-57237380D01*
X141882857Y-57237380D01*
X141978095Y-57285000D01*
X142025714Y-57332619D01*
X142073333Y-57427857D01*
X142073333Y-57570714D01*
X142025714Y-57665952D01*
X141978095Y-57713571D01*
X141882857Y-57761190D01*
X141501904Y-57761190D01*
X143025714Y-58237380D02*
X142454285Y-58237380D01*
X142740000Y-58237380D02*
X142740000Y-57237380D01*
X142644761Y-57380238D01*
X142549523Y-57475476D01*
X142454285Y-57523095D01*
%TO.C,R6*%
X128865333Y-61412380D02*
X128532000Y-60936190D01*
X128293904Y-61412380D02*
X128293904Y-60412380D01*
X128674857Y-60412380D01*
X128770095Y-60460000D01*
X128817714Y-60507619D01*
X128865333Y-60602857D01*
X128865333Y-60745714D01*
X128817714Y-60840952D01*
X128770095Y-60888571D01*
X128674857Y-60936190D01*
X128293904Y-60936190D01*
X129722476Y-60412380D02*
X129532000Y-60412380D01*
X129436761Y-60460000D01*
X129389142Y-60507619D01*
X129293904Y-60650476D01*
X129246285Y-60840952D01*
X129246285Y-61221904D01*
X129293904Y-61317142D01*
X129341523Y-61364761D01*
X129436761Y-61412380D01*
X129627238Y-61412380D01*
X129722476Y-61364761D01*
X129770095Y-61317142D01*
X129817714Y-61221904D01*
X129817714Y-60983809D01*
X129770095Y-60888571D01*
X129722476Y-60840952D01*
X129627238Y-60793333D01*
X129436761Y-60793333D01*
X129341523Y-60840952D01*
X129293904Y-60888571D01*
X129246285Y-60983809D01*
%TO.C,J1*%
X135556666Y-68667380D02*
X135556666Y-69381666D01*
X135509047Y-69524523D01*
X135413809Y-69619761D01*
X135270952Y-69667380D01*
X135175714Y-69667380D01*
X136556666Y-69667380D02*
X135985238Y-69667380D01*
X136270952Y-69667380D02*
X136270952Y-68667380D01*
X136175714Y-68810238D01*
X136080476Y-68905476D01*
X135985238Y-68953095D01*
%TO.C,Q1*%
X131984761Y-33567619D02*
X131889523Y-33520000D01*
X131794285Y-33424761D01*
X131651428Y-33281904D01*
X131556190Y-33234285D01*
X131460952Y-33234285D01*
X131508571Y-33472380D02*
X131413333Y-33424761D01*
X131318095Y-33329523D01*
X131270476Y-33139047D01*
X131270476Y-32805714D01*
X131318095Y-32615238D01*
X131413333Y-32520000D01*
X131508571Y-32472380D01*
X131699047Y-32472380D01*
X131794285Y-32520000D01*
X131889523Y-32615238D01*
X131937142Y-32805714D01*
X131937142Y-33139047D01*
X131889523Y-33329523D01*
X131794285Y-33424761D01*
X131699047Y-33472380D01*
X131508571Y-33472380D01*
X132889523Y-33472380D02*
X132318095Y-33472380D01*
X132603809Y-33472380D02*
X132603809Y-32472380D01*
X132508571Y-32615238D01*
X132413333Y-32710476D01*
X132318095Y-32758095D01*
%TO.C,U1*%
X107188095Y-30417380D02*
X107188095Y-31226904D01*
X107235714Y-31322142D01*
X107283333Y-31369761D01*
X107378571Y-31417380D01*
X107569047Y-31417380D01*
X107664285Y-31369761D01*
X107711904Y-31322142D01*
X107759523Y-31226904D01*
X107759523Y-30417380D01*
X108759523Y-31417380D02*
X108188095Y-31417380D01*
X108473809Y-31417380D02*
X108473809Y-30417380D01*
X108378571Y-30560238D01*
X108283333Y-30655476D01*
X108188095Y-30703095D01*
%TO.C,U2*%
X126238095Y-50252380D02*
X126238095Y-51061904D01*
X126285714Y-51157142D01*
X126333333Y-51204761D01*
X126428571Y-51252380D01*
X126619047Y-51252380D01*
X126714285Y-51204761D01*
X126761904Y-51157142D01*
X126809523Y-51061904D01*
X126809523Y-50252380D01*
X127238095Y-50347619D02*
X127285714Y-50300000D01*
X127380952Y-50252380D01*
X127619047Y-50252380D01*
X127714285Y-50300000D01*
X127761904Y-50347619D01*
X127809523Y-50442857D01*
X127809523Y-50538095D01*
X127761904Y-50680952D01*
X127190476Y-51252380D01*
X127809523Y-51252380D01*
D12*
%TO.C,D1*%
X131090701Y-68797150D02*
X131090701Y-68317133D01*
X131204991Y-68317133D01*
X131273565Y-68339991D01*
X131319281Y-68385707D01*
X131342139Y-68431423D01*
X131364997Y-68522855D01*
X131364997Y-68591428D01*
X131342139Y-68682860D01*
X131319281Y-68728576D01*
X131273565Y-68774292D01*
X131204991Y-68797150D01*
X131090701Y-68797150D01*
X131822156Y-68797150D02*
X131547860Y-68797150D01*
X131685008Y-68797150D02*
X131685008Y-68317133D01*
X131639292Y-68385707D01*
X131593576Y-68431423D01*
X131547860Y-68454281D01*
D11*
X129278095Y-65222380D02*
X129278095Y-64222380D01*
X129849523Y-65222380D02*
X129420952Y-64650952D01*
X129849523Y-64222380D02*
X129278095Y-64793809D01*
%TO.C,R5*%
X137628333Y-48077380D02*
X137295000Y-47601190D01*
X137056904Y-48077380D02*
X137056904Y-47077380D01*
X137437857Y-47077380D01*
X137533095Y-47125000D01*
X137580714Y-47172619D01*
X137628333Y-47267857D01*
X137628333Y-47410714D01*
X137580714Y-47505952D01*
X137533095Y-47553571D01*
X137437857Y-47601190D01*
X137056904Y-47601190D01*
X138533095Y-47077380D02*
X138056904Y-47077380D01*
X138009285Y-47553571D01*
X138056904Y-47505952D01*
X138152142Y-47458333D01*
X138390238Y-47458333D01*
X138485476Y-47505952D01*
X138533095Y-47553571D01*
X138580714Y-47648809D01*
X138580714Y-47886904D01*
X138533095Y-47982142D01*
X138485476Y-48029761D01*
X138390238Y-48077380D01*
X138152142Y-48077380D01*
X138056904Y-48029761D01*
X138009285Y-47982142D01*
%TO.C,J3*%
X143176666Y-39032380D02*
X143176666Y-39746666D01*
X143129047Y-39889523D01*
X143033809Y-39984761D01*
X142890952Y-40032380D01*
X142795714Y-40032380D01*
X143557619Y-39032380D02*
X144176666Y-39032380D01*
X143843333Y-39413333D01*
X143986190Y-39413333D01*
X144081428Y-39460952D01*
X144129047Y-39508571D01*
X144176666Y-39603809D01*
X144176666Y-39841904D01*
X144129047Y-39937142D01*
X144081428Y-39984761D01*
X143986190Y-40032380D01*
X143700476Y-40032380D01*
X143605238Y-39984761D01*
X143557619Y-39937142D01*
%TO.C,C3*%
X119213333Y-68937142D02*
X119165714Y-68984761D01*
X119022857Y-69032380D01*
X118927619Y-69032380D01*
X118784761Y-68984761D01*
X118689523Y-68889523D01*
X118641904Y-68794285D01*
X118594285Y-68603809D01*
X118594285Y-68460952D01*
X118641904Y-68270476D01*
X118689523Y-68175238D01*
X118784761Y-68080000D01*
X118927619Y-68032380D01*
X119022857Y-68032380D01*
X119165714Y-68080000D01*
X119213333Y-68127619D01*
X119546666Y-68032380D02*
X120165714Y-68032380D01*
X119832380Y-68413333D01*
X119975238Y-68413333D01*
X120070476Y-68460952D01*
X120118095Y-68508571D01*
X120165714Y-68603809D01*
X120165714Y-68841904D01*
X120118095Y-68937142D01*
X120070476Y-68984761D01*
X119975238Y-69032380D01*
X119689523Y-69032380D01*
X119594285Y-68984761D01*
X119546666Y-68937142D01*
D13*
%TO.C,SW1*%
X108796666Y-38614047D02*
X108978095Y-38674523D01*
X109280476Y-38674523D01*
X109401428Y-38614047D01*
X109461904Y-38553571D01*
X109522380Y-38432619D01*
X109522380Y-38311666D01*
X109461904Y-38190714D01*
X109401428Y-38130238D01*
X109280476Y-38069761D01*
X109038571Y-38009285D01*
X108917619Y-37948809D01*
X108857142Y-37888333D01*
X108796666Y-37767380D01*
X108796666Y-37646428D01*
X108857142Y-37525476D01*
X108917619Y-37465000D01*
X109038571Y-37404523D01*
X109340952Y-37404523D01*
X109522380Y-37465000D01*
X109945714Y-37404523D02*
X110248095Y-38674523D01*
X110490000Y-37767380D01*
X110731904Y-38674523D01*
X111034285Y-37404523D01*
X112183333Y-38674523D02*
X111457619Y-38674523D01*
X111820476Y-38674523D02*
X111820476Y-37404523D01*
X111699523Y-37585952D01*
X111578571Y-37706904D01*
X111457619Y-37767380D01*
D11*
%TO.C,R2*%
X138263333Y-32202380D02*
X137930000Y-31726190D01*
X137691904Y-32202380D02*
X137691904Y-31202380D01*
X138072857Y-31202380D01*
X138168095Y-31250000D01*
X138215714Y-31297619D01*
X138263333Y-31392857D01*
X138263333Y-31535714D01*
X138215714Y-31630952D01*
X138168095Y-31678571D01*
X138072857Y-31726190D01*
X137691904Y-31726190D01*
X138644285Y-31297619D02*
X138691904Y-31250000D01*
X138787142Y-31202380D01*
X139025238Y-31202380D01*
X139120476Y-31250000D01*
X139168095Y-31297619D01*
X139215714Y-31392857D01*
X139215714Y-31488095D01*
X139168095Y-31630952D01*
X138596666Y-32202380D01*
X139215714Y-32202380D01*
%TO.C,R4*%
X134453333Y-48077380D02*
X134120000Y-47601190D01*
X133881904Y-48077380D02*
X133881904Y-47077380D01*
X134262857Y-47077380D01*
X134358095Y-47125000D01*
X134405714Y-47172619D01*
X134453333Y-47267857D01*
X134453333Y-47410714D01*
X134405714Y-47505952D01*
X134358095Y-47553571D01*
X134262857Y-47601190D01*
X133881904Y-47601190D01*
X135310476Y-47410714D02*
X135310476Y-48077380D01*
X135072380Y-47029761D02*
X134834285Y-47744047D01*
X135453333Y-47744047D01*
%TO.C,C4*%
X124293333Y-68937142D02*
X124245714Y-68984761D01*
X124102857Y-69032380D01*
X124007619Y-69032380D01*
X123864761Y-68984761D01*
X123769523Y-68889523D01*
X123721904Y-68794285D01*
X123674285Y-68603809D01*
X123674285Y-68460952D01*
X123721904Y-68270476D01*
X123769523Y-68175238D01*
X123864761Y-68080000D01*
X124007619Y-68032380D01*
X124102857Y-68032380D01*
X124245714Y-68080000D01*
X124293333Y-68127619D01*
X125150476Y-68365714D02*
X125150476Y-69032380D01*
X124912380Y-67984761D02*
X124674285Y-68699047D01*
X125293333Y-68699047D01*
%TO.C,C1*%
X109585551Y-49252142D02*
X109537932Y-49299761D01*
X109395075Y-49347380D01*
X109299837Y-49347380D01*
X109156979Y-49299761D01*
X109061741Y-49204523D01*
X109014122Y-49109285D01*
X108966503Y-48918809D01*
X108966503Y-48775952D01*
X109014122Y-48585476D01*
X109061741Y-48490238D01*
X109156979Y-48395000D01*
X109299837Y-48347380D01*
X109395075Y-48347380D01*
X109537932Y-48395000D01*
X109585551Y-48442619D01*
X110537932Y-49347380D02*
X109966503Y-49347380D01*
X110252218Y-49347380D02*
X110252218Y-48347380D01*
X110156979Y-48490238D01*
X110061741Y-48585476D01*
X109966503Y-48633095D01*
%TO.C,BT1*%
X69778571Y-75080714D02*
X69826190Y-74937857D01*
X69873809Y-74890238D01*
X69969047Y-74842619D01*
X70111904Y-74842619D01*
X70207142Y-74890238D01*
X70254761Y-74937857D01*
X70302380Y-75033095D01*
X70302380Y-75414047D01*
X69302380Y-75414047D01*
X69302380Y-75080714D01*
X69350000Y-74985476D01*
X69397619Y-74937857D01*
X69492857Y-74890238D01*
X69588095Y-74890238D01*
X69683333Y-74937857D01*
X69730952Y-74985476D01*
X69778571Y-75080714D01*
X69778571Y-75414047D01*
X69302380Y-74556904D02*
X69302380Y-73985476D01*
X70302380Y-74271190D02*
X69302380Y-74271190D01*
X70302380Y-73128333D02*
X70302380Y-73699761D01*
X70302380Y-73414047D02*
X69302380Y-73414047D01*
X69445238Y-73509285D01*
X69540476Y-73604523D01*
X69588095Y-73699761D01*
X92175000Y-23393333D02*
X92175000Y-22326666D01*
X92708333Y-22860000D02*
X91641666Y-22860000D01*
X79475000Y-23393333D02*
X79475000Y-22326666D01*
%TO.C,R3*%
X138263333Y-36012380D02*
X137930000Y-35536190D01*
X137691904Y-36012380D02*
X137691904Y-35012380D01*
X138072857Y-35012380D01*
X138168095Y-35060000D01*
X138215714Y-35107619D01*
X138263333Y-35202857D01*
X138263333Y-35345714D01*
X138215714Y-35440952D01*
X138168095Y-35488571D01*
X138072857Y-35536190D01*
X137691904Y-35536190D01*
X138596666Y-35012380D02*
X139215714Y-35012380D01*
X138882380Y-35393333D01*
X139025238Y-35393333D01*
X139120476Y-35440952D01*
X139168095Y-35488571D01*
X139215714Y-35583809D01*
X139215714Y-35821904D01*
X139168095Y-35917142D01*
X139120476Y-35964761D01*
X139025238Y-36012380D01*
X138739523Y-36012380D01*
X138644285Y-35964761D01*
X138596666Y-35917142D01*
D14*
%TO.C,J2*%
X118805000Y-45095000D02*
X118805000Y-52775000D01*
X116145000Y-43825000D02*
X116145000Y-42495000D01*
X116145000Y-45095000D02*
X118805000Y-45095000D01*
X116145000Y-45095000D02*
X116145000Y-52775000D01*
X116145000Y-52775000D02*
X118805000Y-52775000D01*
X116145000Y-42495000D02*
X117475000Y-42495000D01*
D15*
%TO.C,LS1*%
X128020000Y-35560000D02*
G75*
G03*
X128020000Y-35560000I-6100000J0D01*
G01*
D14*
%TO.C,C2*%
X112630000Y-66910000D02*
X112630000Y-64560000D01*
X105176250Y-61258750D02*
X105176250Y-62046250D01*
X105810000Y-65845563D02*
X106874437Y-66910000D01*
X105810000Y-61154437D02*
X106874437Y-60090000D01*
X105810000Y-61154437D02*
X105810000Y-62440000D01*
X105810000Y-65845563D02*
X105810000Y-64560000D01*
X104782500Y-61652500D02*
X105570000Y-61652500D01*
X112630000Y-60090000D02*
X112630000Y-62440000D01*
X106874437Y-66910000D02*
X112630000Y-66910000D01*
X106874437Y-60090000D02*
X112630000Y-60090000D01*
%TO.C,RV1*%
X139905000Y-61605000D02*
X149675000Y-61605000D01*
X139905000Y-66675000D02*
X149675000Y-66675000D01*
X139905000Y-61605000D02*
X139905000Y-66675000D01*
X149675000Y-61605000D02*
X149675000Y-66675000D01*
%TO.C,Y1*%
X125840000Y-56885000D02*
X125840000Y-58155000D01*
X118000000Y-56885000D02*
X118000000Y-58155000D01*
X118000000Y-61225000D02*
X118000000Y-59955000D01*
X125840000Y-61225000D02*
X118000000Y-61225000D01*
X125840000Y-56885000D02*
X118000000Y-56885000D01*
X125840000Y-61225000D02*
X125840000Y-59955000D01*
%TO.C,R1*%
X141512936Y-54970000D02*
X142967064Y-54970000D01*
X141512936Y-56790000D02*
X142967064Y-56790000D01*
%TO.C,R6*%
X132355000Y-59790436D02*
X132355000Y-61244564D01*
X130535000Y-59790436D02*
X130535000Y-61244564D01*
%TO.C,J1*%
X138490000Y-57150000D02*
X138490000Y-67370000D01*
X137160000Y-54550000D02*
X138490000Y-54550000D01*
X135890000Y-57150000D02*
X138490000Y-57150000D01*
X133290000Y-54550000D02*
X135890000Y-54550000D01*
X133290000Y-67370000D02*
X138490000Y-67370000D01*
X133290000Y-54550000D02*
X133290000Y-67370000D01*
X135890000Y-54550000D02*
X135890000Y-57150000D01*
X138490000Y-54550000D02*
X138490000Y-55880000D01*
%TO.C,Q1*%
X132080000Y-38390000D02*
X133755000Y-38390000D01*
X132080000Y-38390000D02*
X131430000Y-38390000D01*
X132080000Y-35270000D02*
X132730000Y-35270000D01*
X132080000Y-35270000D02*
X131430000Y-35270000D01*
%TO.C,U1*%
X104100000Y-31965000D02*
X114340000Y-31965000D01*
X104100000Y-31965000D02*
X104100000Y-36606000D01*
X114340000Y-31965000D02*
X114340000Y-36606000D01*
X104100000Y-33475000D02*
X114340000Y-33475000D01*
X104100000Y-36606000D02*
X114340000Y-36606000D01*
X107370000Y-31965000D02*
X107370000Y-33475000D01*
X111071000Y-31965000D02*
X111071000Y-33475000D01*
D11*
%TO.C,U2*%
X123375000Y-54425000D02*
X123375000Y-54100000D01*
X130625000Y-47175000D02*
X130625000Y-47500000D01*
X130625000Y-54425000D02*
X130300000Y-54425000D01*
X130625000Y-54425000D02*
X130625000Y-54100000D01*
X123375000Y-47175000D02*
X123375000Y-47400000D01*
X130625000Y-47175000D02*
X130300000Y-47175000D01*
X123375000Y-54425000D02*
X123700000Y-54425000D01*
X123375000Y-47400000D02*
X121950000Y-47400000D01*
X123375000Y-47175000D02*
X123700000Y-47175000D01*
D15*
%TO.C,D1*%
X132485000Y-66935000D02*
X132485000Y-63875000D01*
X130405000Y-66935000D02*
X130405000Y-63875000D01*
D14*
%TO.C,R5*%
X138705000Y-51527064D02*
X138705000Y-50072936D01*
X136885000Y-51527064D02*
X136885000Y-50072936D01*
%TO.C,J3*%
X140910000Y-43180000D02*
X140910000Y-53400000D01*
X140910000Y-41910000D02*
X140910000Y-40580000D01*
X143510000Y-40580000D02*
X146110000Y-40580000D01*
X146110000Y-40580000D02*
X146110000Y-53400000D01*
X143510000Y-43180000D02*
X143510000Y-40580000D01*
X140910000Y-53400000D02*
X146110000Y-53400000D01*
X140910000Y-43180000D02*
X143510000Y-43180000D01*
X140910000Y-40580000D02*
X142240000Y-40580000D01*
%TO.C,C3*%
X118668748Y-65130000D02*
X120091252Y-65130000D01*
X118668748Y-66950000D02*
X120091252Y-66950000D01*
D16*
%TO.C,SW1*%
X104580000Y-43180000D02*
X104580000Y-43180000D01*
D17*
X105155000Y-40180000D02*
X113285000Y-40180000D01*
D16*
X104680000Y-43180000D02*
X104680000Y-43180000D01*
D17*
X113285000Y-46180000D02*
X105155000Y-46180000D01*
X113285000Y-40180000D02*
X113285000Y-46180000D01*
X105155000Y-46180000D02*
X105155000Y-40180000D01*
D16*
X104680000Y-43180000D02*
G75*
G03*
X104580000Y-43180000I-50000J0D01*
G01*
X104580000Y-43180000D02*
G75*
G03*
X104680000Y-43180000I50000J0D01*
G01*
D14*
%TO.C,R2*%
X139157064Y-34565000D02*
X137702936Y-34565000D01*
X139157064Y-32745000D02*
X137702936Y-32745000D01*
%TO.C,R4*%
X133710000Y-51527064D02*
X133710000Y-50072936D01*
X135530000Y-51527064D02*
X135530000Y-50072936D01*
%TO.C,C4*%
X125171252Y-66950000D02*
X123748748Y-66950000D01*
X125171252Y-65130000D02*
X123748748Y-65130000D01*
%TO.C,C1*%
X105810000Y-50994437D02*
X105810000Y-52280000D01*
X106874437Y-49930000D02*
X112630000Y-49930000D01*
X112630000Y-56750000D02*
X112630000Y-54400000D01*
X105810000Y-55685563D02*
X106874437Y-56750000D01*
X105810000Y-50994437D02*
X106874437Y-49930000D01*
X104782500Y-51492500D02*
X105570000Y-51492500D01*
X112630000Y-49930000D02*
X112630000Y-52280000D01*
X105810000Y-55685563D02*
X105810000Y-54400000D01*
X106874437Y-56750000D02*
X112630000Y-56750000D01*
X105176250Y-51098750D02*
X105176250Y-51886250D01*
D15*
%TO.C,BT1*%
X70740000Y-23625000D02*
X100710000Y-23625000D01*
X100710000Y-77975000D02*
X70740000Y-77975000D01*
X100710000Y-23625000D02*
X100710000Y-77975000D01*
X70740000Y-77975000D02*
X70740000Y-23625000D01*
D14*
%TO.C,R3*%
X139157064Y-38375000D02*
X137702936Y-38375000D01*
X139157064Y-36555000D02*
X137702936Y-36555000D01*
%TD*%
M02*
